# xmcd
#
# Track frame offsets:
#	150
#	17537
#	32450
#	49207
#	67845
#	85070
#	103195
#	118770
#	135205
#	150035
#	166630
#
# Disc length: 2468 seconds
#
# Revision: 0
# Processed by: cddbd v1.4PL0 Copyright (c) Steve Scherf et al.
# Submitted via: EasyCDDAExtractor 4.6.0.1
#
DISCID=6f09a20b
DTITLE=John Berry - All The Way To There
DYEAR=2001
DGENRE=Country
TTITLE0=Settle For Everything
TTITLE1=He Makes Me Want Her Again
TTITLE2=Today
TTITLE3=You Make Me Believe
TTITLE4=Everybody Knows
TTITLE5=How Much Do You Love Me
TTITLE6=Sanctuary
TTITLE7=I Promise You
TTITLE8=Can't Get Enough
TTITLE9=Let's Find Out
TTITLE10=Eternally
EXTD=
EXTT0=
EXTT1=
EXTT2=
EXTT3=
EXTT4=
EXTT5=
EXTT6=
EXTT7=
EXTT8=
EXTT9=
EXTT10=
PLAYORDER=
